<svg width="28" height="28" xmlns="http://www.w3.org/2000/svg"><g id="Social-Icons" stroke="none" stroke-width="1" fill="none" fill-rule="evenodd"><g id="social-icons" transform="translate(-220 -40)" fill="#000"><g id="instagram" transform="translate(220 40)"><path d="M14 0c7.732 0 14 6.268 14 14s-6.268 14-14 14S0 21.732 0 14 6.268 0 14 0zm.885 7h-1.77c-1.12.004-1.39.014-2.001.042-.745.034-1.254.152-1.7.326a3.43 3.43 0 00-1.24.807c-.388.389-.628.78-.807 1.24-.173.445-.29.954-.325 1.699-.028.61-.038.881-.041 2v1.771c.003 1.12.013 1.39.041 2.001.034.745.152 1.254.325 1.7.18.46.419.85.808 1.24.389.388.78.628 1.24.807.445.173.954.29 1.699.325.747.034.985.042 2.886.042 1.901 0 2.14-.008 2.886-.042.745-.034 1.254-.152 1.7-.325.46-.18.85-.419 1.24-.808.388-.389.628-.78.806-1.24.174-.445.292-.954.326-1.699.034-.747.042-.985.042-2.886 0-1.901-.008-2.14-.042-2.886-.034-.745-.152-1.254-.326-1.7a3.431 3.431 0 00-.807-1.24 3.432 3.432 0 00-1.24-.806c-.445-.174-.954-.292-1.699-.326-.61-.028-.881-.038-2-.041zm1.944 1.302c.682.031 1.053.145 1.3.241.326.127.56.279.804.524.245.245.397.478.524.805.096.246.21.617.24 1.3.03.637.04.889.041 2.15v1.356c-.002 1.261-.011 1.513-.04 2.15-.031.683-.145 1.054-.241 1.3-.127.327-.279.56-.524.805a2.169 2.169 0 01-.805.524c-.246.096-.617.21-1.3.241-.637.029-.889.038-2.15.04h-1.356c-1.261-.002-1.513-.011-2.15-.04-.683-.031-1.054-.145-1.3-.241a2.169 2.169 0 01-.805-.524 2.169 2.169 0 01-.524-.805c-.096-.246-.21-.617-.241-1.3-.029-.637-.038-.889-.04-2.15v-1.356c.002-1.261.011-1.513.04-2.15.031-.683.145-1.054.241-1.3.127-.327.279-.56.524-.805s.478-.397.805-.524c.246-.096.617-.21 1.3-.24.637-.03.889-.04 2.15-.041h1.356c1.261.002 1.513.011 2.15.04zm-2.815 2.115a3.597 3.597 0 100 7.194 3.597 3.597 0 000-7.194zm0 1.262a2.335 2.335 0 110 4.67 2.335 2.335 0 010-4.67zm3.708-2.262a.833.833 0 100 1.666.833.833 0 000-1.666z" id="Combined-Shape"/></g></g></g></svg>