<svg width="747" height="555" xmlns="http://www.w3.org/2000/svg"><g id="Page-1" stroke="none" stroke-width="1" fill="none" fill-rule="evenodd"><g id="Desktop-HD" transform="translate(-619 -4969)" fill="#E1F1FB" fill-rule="nonzero"><g id="blob-shape-(2)" transform="rotate(-143 1584.441 2747.448)"><path d="M794.445 163.112c74.819 41.031 96.02 118.947 125.06 174.83 29.04 55.756 19.763 122.84-27.629 177.968-27.392 31.863-100.995 103.047-198.099 129.171-83.839 22.556-240.582 5.874-333.148-17.536-92.566-23.41-124.42-77.369-158.883-138.489-34.463-61.12-48.83-126.244-24.831-180.49 23.796-54.121 212.008-172.662 294.288-172.536 82.281.126 248.423-14.075 323.242 27.082z" id="Path" transform="rotate(-22 550.523 394.762)"/></g></g></g></svg>