<svg height="28" width="28" xmlns="http://www.w3.org/2000/svg"><path d="M14 0c7.732 0 14 6.268 14 14s-6.268 14-14 14S0 21.732 0 14 6.268 0 14 0zm2.888 8.91c-1.514 0-2.74 1.294-2.74 2.89 0 .227.022.448.07.659-2.278-.12-4.298-1.27-5.651-3.021a3.006 3.006 0 00-.371 1.454c0 1.003.484 1.888 1.22 2.407a2.644 2.644 0 01-1.243-.361v.036c0 1.4.944 2.57 2.2 2.835a2.63 2.63 0 01-1.238.051c.348 1.147 1.36 1.985 2.56 2.007a5.323 5.323 0 01-4.059 1.198 7.476 7.476 0 004.203 1.299c5.044 0 7.8-4.406 7.8-8.228 0-.125-.001-.25-.007-.374A5.731 5.731 0 0021 10.265c-.492.23-1.02.386-1.574.455a2.87 2.87 0 001.205-1.6 5.317 5.317 0 01-1.742.702 2.669 2.669 0 00-2-.913z" fill-rule="evenodd"/></svg>