<svg height="28" width="28" xmlns="http://www.w3.org/2000/svg"><path d="M14 0c7.732 0 14 6.268 14 14s-6.268 14-14 14S0 21.732 0 14 6.268 0 14 0zm1.812 12.947c-2.593-.058-6.856.053-7.4.193a1.31 1.31 0 00-.637.37c-.344.344-.549.837-.631 1.519a23.122 23.122 0 00-.011 5.05c.078.693.239 1.144.54 1.515a1.5 1.5 0 00.802.487c.204.042 1.222.099 2.706.152.221.009.806.022 1.3.03 1.03.019 2.925.008 4.007-.022a96.254 96.254 0 002.463-.104l.201-.013c.43-.024.704-.114.96-.317.333-.262.59-.746.699-1.314.103-.537.172-1.494.185-2.58a19.67 19.67 0 00-.069-2.184c-.083-.993-.148-1.316-.352-1.73-.27-.547-.661-.836-1.217-.9-.383-.044-1.704-.104-3.045-.14zm-.688 1.488v1.234c.003.413.01.718.016.718.009 0 .089-.071.179-.158.206-.2.377-.286.595-.303.39-.03.622.17.728.63.027.12.035.256.036 1.088v1.1c-.002 1.069-.017 1.107-.129 1.357-.067.15-.216.297-.34.332-.318.095-.575.019-.87-.26a1.104 1.104 0 00-.191-.158c-.016 0-.024.067-.024.201v.202h-.76v-5.983zm-3.066 1.549l.005 1.808c.006 1.777.007 1.81.05 1.882.055.097.142.123.278.085.08-.022.135-.062.265-.191l.164-.164v-3.42h.761v4.434h-.761v-.312c-.003-.115-.01-.155-.027-.155a.611.611 0 00-.153.128 1.43 1.43 0 01-.482.335c-.315.118-.614.05-.742-.171-.1-.172-.115-.23-.118-1.537v-2.722zm6.127.005c.543-.198 1.197.053 1.433.55.124.263.14.375.152 1.115l.01.663-.81.006-.811.005-.006.445c-.009.629.033.822.202.937.142.096.36.088.48-.016.111-.099.143-.204.154-.512l.01-.27h.783l-.012.301a2.816 2.816 0 01-.045.425 1.094 1.094 0 01-.794.787c-.55.154-1.153-.099-1.394-.582-.12-.243-.137-.312-.14-1.275v-.722c.002-.77.009-.888.039-1.018.097-.419.34-.689.749-.839zm-9.869-1.555l1.39.006 1.39.005.012.795-.481.006-.482.005-.01 2.578-.011 2.578-.419.006c-.322.004-.42 0-.427-.021a160.43 160.43 0 01-.016-2.584l-.005-2.557-.47-.005-.47-.006zm6.925 2.346l-.074.057v2.706l.074.056c.167.129.351.155.478.07a.285.285 0 00.108-.154c.033-.096.036-.219.031-1.357-.004-1.186-.007-1.256-.045-1.334-.098-.198-.345-.217-.572-.044zm3.342-.168c-.204 0-.333.1-.394.302-.026.087-.053.682-.034.734.01.028.07.033.427.033h.416l-.008-.377c-.007-.345-.011-.385-.057-.479-.072-.147-.18-.213-.35-.213zm-.024-8.718l-.428.005-.428.006-.005 1.724-.006 1.724-.143.146c-.15.153-.269.21-.377.184-.118-.03-.115.016-.125-1.959l-.009-1.819h-.857v2.781c.002 1.31.015 1.337.106 1.517.085.17.21.252.422.28.28.038.582-.09.862-.363l.121-.12.001.283c.002.109.01.13.036.138.053.015.702.016.772.001l.058-.012zm-3.515.155a1.234 1.234 0 00-1.26-.076c-.304.151-.5.4-.6.767-.043.154-.046.221-.054 1.295-.01 1.386.006 1.55.179 1.865.17.31.522.536.905.582.115.015.35-.008.484-.045a1.2 1.2 0 00.728-.603c.135-.285.141-.362.141-1.68V9.81c-.001-.769-.007-.877-.039-1.014-.082-.35-.234-.585-.484-.747zM12.72 6.364c-.39-.002-.508 0-.519.01-.005.005-.14.517-.378 1.444-.115.442-.21.796-.214.785l-.304-1.122c-.164-.606-.3-1.106-.305-1.11a22.693 22.693 0 00-.95-.005c-.06 0-.094-.119.547 1.927.088.283.221.684.295.89.226.638.28.888.256 1.204-.018.247-.021 1.993-.003 2.023.013.022.829.032.907.01.03-.007.035-.07.036-.892V9.953l.062-.197c.035-.108.12-.392.191-.63l.19-.638a79.56 79.56 0 00.61-2.052l.01-.07zm1.644 2.26l.065.011c.138.038.209.124.25.306.029.134.032.302.026 1.289-.008 1.27-.009 1.279-.156 1.391a.397.397 0 01-.3.058c-.078-.018-.184-.141-.217-.255-.044-.15-.045-2.388-.001-2.539.057-.195.22-.297.398-.25z" fill-rule="evenodd"/></svg>