<?xml version="1.0" encoding="UTF-8"?>
<svg width="28px" height="28px" viewBox="0 0 28 28" version="1.1" xmlns="http://www.w3.org/2000/svg" xmlns:xlink="http://www.w3.org/1999/xlink">
    <!-- Generator: Sketch 62 (91390) - https://sketch.com -->
    <title>Combined Shape</title>
    <desc>Created with Sketch.</desc>
    <g id="Social-Icons" stroke="none" stroke-width="1" fill="none" fill-rule="evenodd">
        <g id="social-icons" transform="translate(-40.000000, -40.000000)" fill="#000000">
            <g id="facebook" transform="translate(40.000000, 40.000000)">
                <path d="M14,0 C21.7319865,0 28,6.2680135 28,14 C28,21.7319865 21.7319865,28 14,28 C6.2680135,28 0,21.7319865 0,14 C0,6.2680135 6.2680135,0 14,0 Z M17.1675934,7.63636364 L15.0964697,7.63636364 C12.6080866,7.63636364 11.7327902,8.86037158 11.7327902,10.9176287 L11.7327902,10.9176287 L11.7327902,12.4317034 L10.1818182,12.4317034 L10.1818182,14.9536217 L11.7327902,14.9536217 L11.7327902,22.2727273 L14.8361567,22.2727273 L14.8361567,14.9536217 L16.9072805,14.9536217 L17.1818182,12.4317034 L14.8361567,12.4317034 L14.8404242,11.1693586 C14.8404242,10.5116276 14.9044355,10.1592057 15.8731411,10.1592057 L15.8731411,10.1592057 L17.1675934,10.1592057 L17.1675934,7.63636364 Z" id="Combined-Shape"></path>
            </g>
        </g>
    </g>
</svg>