<svg height="28" viewBox="0 0 28 28" width="28" xmlns="http://www.w3.org/2000/svg"><path d="m14 0c7.7319865 0 14 6.2680135 14 14s-6.2680135 14-14 14-14-6.2680135-14-14 6.2680135-14 14-14zm.8851003 7.00090704h-1.7702261c-1.119464.00288295-1.3900907.01334493-2.0009652.04121736-.7450962.03401073-1.25392341.15232583-1.69920277.32538043-.46031189.17888977-.85068504.41824305-1.23983559.8073936-.38915054.38915055-.62850383.7795237-.8073936 1.23983558-.17305459.44527937-.2913697.95410659-.32538043 1.69920269-.02787243.6108518-.0383158.881493-.04119199 2.000963v1.7702284c.00287619 1.11947.01331956 1.3901111.04119199 2.0009629.03401073.7450962.15232584 1.2539234.32538043 1.6992028.17888977.4602841.41824306.850685.8073936 1.2398356.38915055.3891505.7795237.6285038 1.23983559.8073936.44527936.1730546.95410657.2913697 1.69920277.3253804.7466244.0340663.9849774.0420966 2.8860771.0420966 1.9010998 0 2.1394805-.0080303 2.8860772-.0420966.7450961-.0340107 1.2539233-.1523258 1.6992027-.3253804.4603119-.1788898.850685-.4182431 1.2398356-.8073936.3891505-.3891506.6285038-.7795237.8073936-1.2398356.1730546-.4452794.2913697-.9541066.3253804-1.6992028.0340663-.7465966.0421244-.9849774.0421244-2.8860771 0-1.9010998-.0080581-2.1394805-.0421244-2.8860772-.0340107-.7450961-.1523258-1.25392332-.3253804-1.69920269-.1788898-.46031188-.4182431-.85068503-.8073936-1.23983558-.3891506-.38915055-.7795237-.62850383-1.2398356-.8073936-.4452794-.1730546-.9541066-.2913697-1.6992027-.32538043-.6108518-.02787243-.881493-.03833441-2.000963-.04121736zm1.9434726 1.3011704c.6824931.03114872 1.0531378.14518469 1.2998267.24102048.3267142.12698451.5599267.27869904.8048651.52363742.2449383.24493838.3966529.47815084.5236096.80486503.0958636.24668893.2098995.61733363.2410483 1.29979893.0290849.6374928.0383566.8895404.0403445 2.1504165v1.3563961c-.0019879 1.2608757-.0112596 1.51292-.0403445 2.1503888-.0311488.6824931-.1451847 1.0531378-.2410483 1.2998267-.1269567.3267142-.2786713.5599267-.5236096.804865-.2449384.2449384-.4781509.396653-.8048651.5236097-.2466889.0958636-.6173336.2098995-1.2998267.2410482-.6373728.029085-.889404.0383567-2.1503495.0403446h-1.3564746c-1.2609455-.0019879-1.5129767-.0112596-2.1503495-.0403446-.6824931-.0311487-1.0531378-.1451846-1.29979893-.2410482-.32674197-.1269567-.55995443-.2786713-.80489282-.5236097-.24493838-.2449383-.39665291-.4781508-.52360963-.804865-.09586357-.2466889-.20989955-.6173336-.24104827-1.2997989-.02908493-.6374928-.03835668-.8895404-.0403445-2.1504165v-1.3563961c.00198782-1.2608757.01125957-1.51292.0403445-2.1503888.03114872-.6824931.1451847-1.0531378.24104827-1.29982673.12695672-.32671419.27867125-.55992665.52360963-.80486503.24493839-.24493838.47815085-.39665291.80489282-.52363742.24666113-.09583579.61730583-.20987176 1.29977113-.24102048.6374928-.02908493.8895404-.03835668 2.1504165-.04034451h1.3563961c1.2608757.00198783 1.51292.01125958 2.1503888.04034451zm-2.814684 2.11458926c-1.9866822 0-3.5972222 1.61054-3.5972222 3.5972222s1.61054 3.5972222 3.5972222 3.5972222 3.5972222-1.61054 3.5972222-3.5972222-1.61054-3.5972222-3.5972222-3.5972222zm0 1.2621769c1.2895944 0 2.3350453 1.0454509 2.3350453 2.3350453s-1.0454509 2.3350453-2.3350453 2.3350453-2.3350453-1.0454509-2.3350453-2.3350453 1.0454509-2.3350453 2.3350453-2.3350453zm3.7083471-2.26217693c-.4602416 0-.8333471.37307796-.8333471.83331953 0 .4602416.3731055.8333471.8333471.8333471s.8333196-.3731055.8333196-.8333471c0-.46024157-.373078-.83331953-.8333196-.83331953z" fill-rule="evenodd"/></svg>