<?xml version="1.0" encoding="UTF-8"?>
<svg width="747px" height="555px" viewBox="0 0 747 555" version="1.1" xmlns="http://www.w3.org/2000/svg" xmlns:xlink="http://www.w3.org/1999/xlink">
    <!-- Generator: Sketch 62 (91390) - https://sketch.com -->
    <title>blob-shape (2)</title>
    <desc>Created with Sketch.</desc>
    <g id="Page-1" stroke="none" stroke-width="1" fill="none" fill-rule="evenodd">
        <g id="Desktop-HD" transform="translate(-619.000000, -4969.000000)" fill="#E1F1FB" fill-rule="nonzero">
            <g id="blob-shape-(2)" transform="translate(1065.500000, 5312.000000) rotate(-143.000000) translate(-1065.500000, -5312.000000) translate(610.000000, 4925.000000)">
                <path d="M794.444965,163.112143 C869.263937,204.142985 890.464702,282.059072 919.504949,337.941569 C948.545197,393.698205 939.268451,460.782374 891.87638,515.909702 C864.4843,547.772674 790.881146,618.956883 693.777448,645.081483 C609.938151,667.637453 453.194772,650.954871 360.628982,627.544636 C268.063192,604.1344 236.209047,550.176141 201.745843,489.056003 C167.282638,427.935865 152.915996,362.811614 176.914534,308.565316 C200.711403,254.44488 388.922724,135.903793 471.203426,136.029654 C553.484128,136.155516 719.625994,121.955439 794.444965,163.112143 Z" id="Path" transform="translate(550.523028, 394.762045) rotate(-22.000000) translate(-550.523028, -394.762045) "></path>
            </g>
        </g>
    </g>
</svg>