<svg height="28" viewBox="0 0 28 28" width="28" xmlns="http://www.w3.org/2000/svg"><path d="m14 0c7.7319865 0 14 6.2680135 14 14s-6.2680135 14-14 14-14-6.2680135-14-14 6.2680135-14 14-14zm2.8882326 8.90909091c-1.5138709 0-2.7406554 1.29469619-2.7406554 2.89135029 0 .2266753.0227473.4475595.0698106.6585164-2.2778658-.1207831-4.29766762-1.270705-5.65073874-3.02123354-.23610111.42853203-.37101603.92490114-.37101603 1.45436164 0 1.0026657.48396805 1.8878573 1.21972499 2.4073904-.44945493-.0148911-.87224063-.1464289-1.24247227-.3615222v.0355731c0 1.4014155.94440443 2.5703649 2.20021135 2.8350951-.2306104.0678371-.47220226.1017557-.72320675.1017557-.17648754 0-.34905313-.0173729-.51534361-.0512915.34826874 1.1482673 1.36091496 1.9854766 2.56103026 2.0078132-.9389137.7759905-2.120988 1.2376138-3.40503289 1.2376138-.22119771 0-.44004226-.0124092-.65418047-.0397095 1.21344987.8198363 2.65437256 1.2988326 4.20275656 1.2988326 5.0436216 0 7.7999648-4.4061035 7.7999648-8.2273187 0-.1257469-.0015688-.2506664-.0070595-.3739315.5357377-.4078499 1.0016648-.9174556 1.3679745-1.4973802-.4918119.2299843-1.0204902.3855133-1.5742688.455005.5663289-.3573858 1.0008804-.92407387 1.2048216-1.59913592-.530247.33174005-1.1161857.57165181-1.7413438.70153507-.4988714-.56255171-1.211881-.91331924-2.0009764-.91331924z" fill-rule="evenodd"/></svg>