<svg height="28" viewBox="0 0 28 28" width="28" xmlns="http://www.w3.org/2000/svg"><path d="m14 0c7.7319865 0 14 6.2680135 14 14s-6.2680135 14-14 14-14-6.2680135-14-14 6.2680135-14 14-14zm1.8115547 12.9468203c-2.5928753-.0575934-6.85526032.0535516-7.40001588.1934933-.251232.0646662-.44003361.1737903-.63638727.3703149-.34387066.3435391-.54878333.8361135-.63135256 1.5181396-.18779467 1.5560299-.19182243 3.4369063-.01107636 5.0495191.07803799.6936458.23914869 1.1442883.54022432 1.5156136.18829813.2318889.51253341.4289186.80253268.4875224.20340226.0414267 1.22192397.0985148 2.70565287.1520665.2210237.0080833.8060569.0217238 1.3004654.0303123 1.0301016.0181874 2.9241592.0075781 4.0066218-.0227342.7285224-.0207134 2.0566788-.0742651 2.3043865-.0934628.0349912-.0027787.0928903-.006694.1580269-.0108619l.2014513-.0123776c.4304677-.0242498.7038524-.1146814.9601191-.3172684.3327943-.2622011.5895645-.7461871.6983142-1.3140369.1032115-.5370324.1721871-1.4938898.1857808-2.5800795.0120833-.9078525-.0040278-1.3979009-.0689755-2.1839992-.0830728-.993232-.1480205-1.3155525-.3524297-1.729315-.2703639-.5481469-.6610574-.8371239-1.2173927-.9007797-.3821904-.0435598-1.7031987-.1034858-3.0440088-.1396831zm-.6872378 1.4878273.0005967 1.2346496c.0019346.4122329.0082979.7174606.0150109.7174606.0090625 0 .0891143-.0712338.1787322-.1576238.2059196-.1995558.3776032-.2864509.5956061-.3036279.3896865-.0293019.6212831.1712643.7275155.6304952.0275584.1208237.034766.2559778.036355 1.0878937l.0000889 1.1004102c-.0020061 1.0682922-.0170055 1.1062446-.1290826 1.356211-.0669616.1500458-.215989.2970603-.3393394.3329298-.3192005.0949785-.5754673.0181874-.8715082-.2611907-.0921352-.0868952-.1777252-.1576238-.190312-.1576238-.0156076 0-.0236631.0676974-.0236631.2015766v.2015766h-.7612481v-5.9831371zm-3.0666415 1.548957.0055382 1.8086322c.0060416 1.7768043.0070485 1.8101478.0493401 1.8818868.0558853.0964941.1424823.1227647.2784194.0848744.0805554-.022229.1349303-.061635.2648258-.1914725l.1641315-.1631811v-3.4207398h.761248v4.4341801h-.761248l-.0006154-.3117393c-.0020978-.1150743-.0097897-.1550697-.026572-.1550697-.0151042 0-.0840797.0575933-.1530552.128322-.1505378.1535821-.32927.2778624-.4813182.3344453-.3151728.1187231-.6142346.0495101-.7421162-.1707591-.0995008-.1717134-.115703-.2301466-.1183198-1.5368884l-.0004993-2.7224909zm6.1272413.0055573c.5432452-.1985454 1.1972539.0525412 1.4333818.5501677.1238539.2627063.138958.3748617.1520482 1.1144812l.0105729.6628283-.8110917.0060624-.8110917.0050521-.0060416.4455904c-.008559.6284744.0332291.8219677.2023953.9366492.1419788.0959888.3604852.0884107.4793043-.0161666.1117706-.0985149.1434893-.2041026.1545656-.5117722l.009566-.2707896h.7839042l-.0120833.3021123c-.0070486.1662123-.0276909.3576848-.0453124.424877-.1062323.3935543-.3876726.6724272-.7944771.7871086-.5487833.1535822-1.152445-.09902-1.3936076-.5825008-.120727-.2431895-.1370626-.3120638-.139164-1.2745029l-.0000875-.7225947c.0011559-.7694338.0078456-.8877985.0380539-1.0179629.0971699-.4183094.3393394-.6885938.7491647-.8386395zm-9.86853389-1.5550195 1.3895798.0055572 1.39058669.0055573.0115799.7946867-.4813182.0060624-.4818217.0050521-.0105729 2.5780586-.0105729 2.5780587-.41838436.0055572c-.32272488.0045469-.42039824-.0005052-.4279503-.0212186-.00553818-.0146509-.01258678-1.1776317-.01510413-2.5836159l-.00553818-2.55684-.47024186-.0050521-.47024186-.0060624zm6.92473929 2.3461697-.0745137.056583v2.7058754l.0740103.0565829c.1676558.1283219.3514227.1550977.4782974.0702234.0498436-.0338487.0825692-.0808327.1082462-.1540874.0327256-.0964941.0357465-.2192587.0312152-1.3574845-.0045312-1.1862202-.0070486-1.2559385-.0453124-1.33374-.0981768-.1985453-.345381-.2177431-.571943-.0439528zm3.3420401-.1682331c-.2039057 0-.3332977.0990201-.3942177.3021123-.0261805.08639-.0533679.6820261-.0337326.733557.0105729.0282915.0699825.0328383.4269434.0328383h.4153635l-.0070486-.3763774c-.0070486-.3455599-.0115798-.385471-.0573956-.4789338-.0724999-.1475198-.1802426-.2131964-.3499124-.2131964zm-.0237199-8.71797916-.4284538.00505204-.4284538.00606246-.0050347 1.72375782-.0055381 1.72426304-.1429858.1460041c-.1490274.1525717-.2688535.2106703-.3770997.1838944-.1178122-.029807-.1152949.0161666-.1248608-1.95918309l-.0090625-1.81873627h-.857411l.000347 2.78079676c.0019956 1.3106876.0154657 1.3367323.1063888 1.5174833.0850866.1692435.2094439.2515918.4219087.2798833.2794263.0373851.5815089-.0899264.8614388-.3632421l.1218399-.1192282.0005198.2818176c.0018997.1093089.0098014.1308503.0362336.1380073.052361.0151562.7018385.0161666.771821.0015156l.0584026-.0121249zm-3.5157376.15459258c-.3932108-.25563348-.8428104-.28240932-1.2596843-.07578068-.303593.15105615-.4994432.40062719-.6006408.76690046-.0422916.15408738-.0453124.22127958-.0533679 1.2948392-.0100695 1.3862812.0060416 1.5509779.1787321 1.8657203.1696697.3091851.5220994.5355168.9057443.5819956.1147913.0141457.3489053-.0080833.4838355-.0449632.3056069-.0853796.598627-.3278778.728019-.6032142.1349302-.2854406.1409719-.3617265.1409719-1.6803102l-.0001931-.34419065c-.0010821-.7684096-.0075367-.87688872-.0390777-1.01329394-.0815622-.35010673-.2336105-.58553204-.484339-.74770269zm-2.3230149-1.68435186c-.3891831-.00202082-.5080022 0-.5185751.01010409-.0050347.00454684-.1394614.51631901-.3786101 1.44387451-.1142879.44205395-.2104509.79519191-.2134717.78508782-.0035243-.0111145-.1399649-.51581381-.3040965-1.12205923-.163628-.60675063-.3005721-1.10589269-.3045999-1.10993433-.0060416-.00606245-.5271341-.00858848-.9495462-.00505205-.06142344.00050521-.09515599-.11922826.5457625 1.92634483.0886109.28291453.2215272.68404692.295034.89067557.2265619.6375681.2799298.88713913.2562667 1.20390233-.018125.247045-.0211458 1.9925267-.0030208 2.0223337.0135937.022229.8292166.0323331.9067511.0111145.0304321-.0080832.0358024-.070055.0366201-.893074l.0001333-1.57434484.0619269-.19702977c.0342361-.10811376.1198261-.3920387.1908155-.63100044.0709894-.23946694.157083-.5259179.190312-.6370629.3076208-1.00586219.6016478-1.99606305.6091999-2.05214075l.0095659-.06921302zm1.6438365 2.25998603.0659508.01090828c.137951.03789034.208437.1237751.2487146.30564873.0297048.1343844.0332291.3021123.026684 1.2887767-.0075521 1.269579-.008559 1.2791779-.1555725 1.3913333-.0719964.0550673-.1973606.0793171-.2995652.0575933-.0785415-.017177-.1847739-.1409521-.218003-.2541179-.0438019-.1505509-.0443054-2.38860695-.0010069-2.5391579.0573957-.19551414.2205203-.29756546.398749-.25007623z" fill-rule="evenodd"/></svg>